<mxfile host="app.diagrams.net" modified="2024-05-27T17:18:04.732Z" agent="Mozilla/5.0 (Windows NT 10.0; Win64; x64) AppleWebKit/537.36 (KHTML, like Gecko) Chrome/116.0.0.0 Safari/537.36" version="24.4.9" etag="w22vN3rnxF9qLsoGXBcI" type="github">
  <diagram name="第 1 页" id="Pw2xY785r79DOL4mVoTe">
    <mxGraphModel>
      <root>
        <mxCell id="0" />
        <mxCell id="1" parent="0" />
      </root>
    </mxGraphModel>
  </diagram>
</mxfile>
